<svg width="24" height="24" viewBox="0 0 24 24" fill="none" xmlns="http://www.w3.org/2000/svg">
<path fill-rule="evenodd" clip-rule="evenodd" d="M4.293 8.10266C4.48053 7.9195 4.73484 7.8166 5 7.8166C5.26516 7.8166 5.51947 7.9195 5.707 8.10266L12 14.2512L18.293 8.10266C18.3852 8.00935 18.4956 7.93491 18.6176 7.88371C18.7396 7.8325 18.8708 7.80555 19.0036 7.80442C19.1364 7.80329 19.2681 7.82801 19.391 7.87714C19.5138 7.92627 19.6255 7.99882 19.7194 8.09055C19.8133 8.18229 19.8875 8.29138 19.9378 8.41146C19.9881 8.53153 20.0134 8.66019 20.0123 8.78992C20.0111 8.91965 19.9835 9.04786 19.9311 9.16706C19.8787 9.28627 19.8025 9.39408 19.707 9.48421L12.707 16.3235C12.5195 16.5067 12.2652 16.6096 12 16.6096C11.7348 16.6096 11.4805 16.5067 11.293 16.3235L4.293 9.48421C4.10553 9.30098 4.00021 9.05251 4.00021 8.79344C4.00021 8.53436 4.10553 8.28589 4.293 8.10266V8.10266Z" fill="black"/>
</svg>
