<?xml version="1.0" encoding="UTF-8"?>
<svg id="Layer_2" data-name="Layer 2" xmlns="http://www.w3.org/2000/svg" viewBox="0 0 141.69 41.01">
  <defs>
    <style>
      .cls-1 {
        fill: #ffafcc;
      }

      .cls-1, .cls-2 {
        stroke-width: 0px;
      }

      .cls-2 {
        fill: #fff;
      }
    </style>
  </defs>
  <g id="Layer_3" data-name="Layer 3">
    <g>
      <g>
        <path class="cls-1" d="m10.13,9.84c.05.54.02,1.1.26,1.56.27.52.85.77,1.4.76s1.08-.26,1.58-.53c1.45-.8,2.8-1.98,3.55-3.58s.8-3.66-.15-5.06C15.8,1.57,13.52.09,11.91.01c-2.74-.14-6.49,1.08-8.66,3.25S-.08,8.86,0,11.91c.08,3.04,2.66,5.34,4.44,7.59,1.78,2.25,3.85,4.25,5.29,6.78.15.26.3.55.27.87-.05.65-.75.95-1.32,1.08-1.62.38-3.29.62-4.78,1.44s-2.81,2.4-2.86,4.23c-.05,1.82,1.18,3.4,2.65,4.14.97.49,2.05.69,3.12.78.54.05,1.09.11,1.63.08.42-.02.79.07,1.2.09.46.02.93,0,1.4-.08.91-.15,1.8-.47,2.62-.95,1.59-.91,2.92-2.35,3.94-3.99,1-1.61,1.72-3.48,1.78-5.41.06-1.76-.43-3.46-1.08-5.04-.86-2.1-2.04-4.08-3.72-5.43-1.94-1.57-4.42-2.2-6.32-3.82-.8-.68-1.5-1.57-1.75-2.66s.04-2.41.89-3.08,2.21-.41,2.59.64c.08.21.11.43.13.66Z"/>
        <circle class="cls-2" cx="2.71" cy="7.04" r=".54"/>
        <path class="cls-2" d="m4.34,5.42c.1-.57.44-1.08.86-1.5s.93-.75,1.44-1.07c.19-.11.37-.23.56-.33s.39-.2.59-.29.41-.15.63-.2c.05-.01.11-.03.16-.03.04,0,.08.04.07.08,0,.04-.04.06-.06.09-1.32,1.19-2.78,2.24-4.25,3.26Z"/>
      </g>
      <g>
        <path class="cls-1" d="m34.43,21.88c-.07.62-.21,1.24-.33,1.85-.63,3.09-.86,6.31-.66,9.49.07,1.11.2,2.25.69,3.19,1.05,2,3.46,2.35,5.22,1.35.82-.46,1.56-1.17,2-2.13.58-1.27.56-2.81.41-4.24-.2-1.9-.61-3.77-1.22-5.54-.45-1.3-1.01-2.57-1.18-3.97-.22-1.77.59-5.55,1.66-6.77,1.29-1.48,2.45-2.16,4.22-2.11s3.16,0,5.27,0c2.46,0,4.88-.61,5.74-3.4.13-.43.24-.89.17-1.35-.11-.76-.67-1.29-1.21-1.68-3.4-2.47-7.56-2.54-11.51-2.54-3.97,0-7.93,0-11.9,0-1.65,0-3.31,0-4.92.41-1.43.36-2.85,1.07-3.94,2.28-.47.52-.85,1.38-1.12,2.09-.11.29-.2.58-.28.88-.43,1.69.88,3.32,2.62,3.32h0s1.43.04,2.11,0c2.14-.11,3.23.29,5.27,1.05s2.96,4.58,2.94,7.2c0,.21-.01.42-.04.63Z"/>
        <path class="cls-2" d="m29.05,6.97c.53-.63,1.31-1.02,2.13-1.23s1.69-.26,2.55-.28c.31,0,.62-.01.93,0s.63.03.94.07.62.1.92.2c.07.02.16.04.22.08.06.03.07.11.03.15-.03.04-.09.05-.14.06-2.48.52-5.03.76-7.58.96Z"/>
        <circle class="cls-2" cx="38.38" cy="6.14" r=".53"/>
      </g>
      <g>
        <path class="cls-1" d="m70.22,14.36c1.5-3.16,3.08-6.41,5.74-8.68.73-.63,1.57-1.18,2.51-1.39s2.01-.04,2.71.62c.62.59.87,1.48.83,2.34s-.35,1.67-.72,2.43c-1.23,2.56-3.16,4.73-5.28,6.62-1.16,1.04-2.44,2.07-3.03,3.51-.44,1.08-.45,2.28-.45,3.45,0,2.53-.01,5.06-.02,7.59,0,2.95-.05,6.06-1.52,8.62-.33.58-.78,1.15-1.41,1.32-.48.13-.99.02-1.45-.16-1.74-.7-2.91-2.39-3.44-4.19s-.52-3.7-.49-5.57c.05-3.85.18-7.95,2.36-11.12-1.91-2.33-4.08-4.51-5.41-7.22-1.03-2.08-1.49-4.61-.78-6.87.33-1.05.74-1.71,1.78-2.1.97-.36,2.1-.08,2.95.46.28.18.55.4.77.65,1.14,1.25,1.57,2.96,2.1,4.56.59,1.77,1.35,3.48,2.26,5.1Z"/>
        <path class="cls-2" d="m65.5,26.07c-.24-.5-.24-1.1-.12-1.69s.37-1.16.62-1.73c.09-.2.19-.41.29-.61s.21-.4.34-.59.26-.38.42-.55c.04-.04.08-.09.12-.13.04-.03.09-.02.11.02.01.03,0,.07,0,.11-.44,1.74-1.1,3.46-1.77,5.17Z"/>
        <path class="cls-2" d="m78.02,12.42c-.13-.54-.02-1.13.21-1.68s.58-1.07.95-1.57c.13-.18.26-.36.4-.54s.29-.35.45-.52.33-.32.52-.46c.05-.03.09-.07.14-.1.04-.02.09,0,.1.04,0,.03,0,.07-.03.1-.77,1.62-1.75,3.18-2.74,4.73Z"/>
        <circle class="cls-2" cx="77.05" cy="13.42" r=".55"/>
      </g>
      <g>
        <path class="cls-1" d="m90.44,22.58c.27-1.33,1.01-5.42.44-7.83-.08-.35-.16-.7-.18-1.06-.04-1.09-.03-3.56.76-5.8,1.09-3.1,4.4-4.83,7.06-3.58,1.27.6,2.44,1.87,2.82,4.46,0,0,.37,7.09-2.09,10.85-.33.5-.68.97-.88,1.55-.07.19-.14.4-.21.62-1.06,3.43,1.44,6.86,4.55,6.3,4.59-.84,11.59-1.33,14.73,2.51,0,0,5.81,5.84-4.62,6.76-.3.03-.58.22-.88.19-.15-.02-4.59.13-8.94.07-3.73-.05-7.44.44-11.06,1.31-1.87.45-4.2.76-6.02.22-3.29-.97-4.18-5.94-1.48-8.4.6-.54,1.33-1.11,2.22-1.68.5-.32.92-.78,1.25-1.33.67-1.11,1.78-3.02,2.31-4.34.11-.27.18-.54.23-.82Z"/>
        <path class="cls-2" d="m102.44,29.45c.37-.41.93-.64,1.52-.75s1.22-.1,1.84-.08c.22,0,.45.02.68.04s.45.05.68.09.45.1.67.18c.05.02.11.04.16.06.04.02.05.08.03.11-.02.03-.06.03-.1.04-1.79.25-3.63.3-5.47.32Z"/>
        <ellipse class="cls-2" cx="99.33" cy="9.37" rx=".4" ry="2.18" transform="translate(4.75 41.13) rotate(-23.95)"/>
      </g>
      <g>
        <path class="cls-1" d="m127.41,7.55s.08-.05.13-.07c1.08-.57,2.3-.83,3.53-.99,2.25-.28,4.58-.23,6.75.43,1.04.31,2.06.78,2.82,1.56s1.22,1.91.99,2.97c-.29,1.33-1.54,2.24-2.84,2.64s-2.68.41-4.01.66-2.71.79-3.45,1.93c-.3.47-.48,1.09-.25,1.6.35.79,1.39.93,2.25,1.03,2.14.25,4.23.95,6.08,2.05.38.23.78.49.95.9.27.64-.09,1.37-.53,1.9-.68.81-1.59,1.42-2.59,1.75-1.02.33-2.13.38-3.1.83-.89.41-1.63,1.21-1.81,2.17s.31,2.06,1.22,2.42c.68.27,1.45.12,2.19.09,1.86-.08,3.92.95,4.32,2.77.35,1.6-.69,3.2-1.97,4.22-1.38,1.09-3.07,1.74-4.77,2.18-1.46.37-3,.6-4.45.22-2.26-.58-3.96-2.54-4.81-4.7s-.99-4.54-1.07-6.87c-.14-3.85-.16-7.71.17-11.54.23-2.6.64-5.29,1.89-7.62.57-1.06,1.3-1.94,2.35-2.53Z"/>
        <ellipse class="cls-2" cx="132.26" cy="8.49" rx="2.1" ry=".38" transform="translate(3.15 38.41) rotate(-16.72)"/>
        <circle class="cls-2" cx="128.58" cy="9.68" r=".53"/>
      </g>
    </g>
  </g>
</svg>